<svg width="22" height="22" viewBox="0 0 22 22" fill="none" xmlns="http://www.w3.org/2000/svg">
<g filter="url(#filter0_i_1181_141)">
<g clip-path="url(#clip0_1181_141)">
<rect width="21.852" height="21.852" rx="4.3704" fill="#05041F" fill-opacity="0.08"/>
<rect x="0.27315" y="0.27315" width="21.3057" height="21.3057" rx="4.09725" stroke="white" stroke-opacity="0.08" stroke-width="0.5463"/>
<rect width="21.852" height="21.852" fill="url(#paint0_radial_1181_141)"/>
<g clip-path="url(#clip1_1181_141)">
<g clip-path="url(#clip2_1181_141)">
<path d="M10.9232 9.67942C10.7588 9.67942 10.5961 9.7118 10.4442 9.77469C10.2924 9.83759 10.1544 9.92978 10.0382 10.046C9.92197 10.1622 9.82978 10.3002 9.76688 10.452C9.70398 10.6039 9.67161 10.7666 9.67161 10.931C9.67161 11.0954 9.70398 11.2581 9.76688 11.41C9.82978 11.5618 9.92197 11.6998 10.0382 11.816C10.1544 11.9322 10.2924 12.0244 10.4442 12.0873C10.5961 12.1502 10.7588 12.1826 10.9232 12.1826C11.2551 12.1826 11.5735 12.0507 11.8082 11.816C12.0429 11.5813 12.1748 11.2629 12.1748 10.931C12.1748 10.5991 12.0429 10.2807 11.8082 10.046C11.5735 9.81128 11.2551 9.67942 10.9232 9.67942ZM10.9232 8.84468C11.2 8.8402 11.475 8.89086 11.7321 8.99371C11.9892 9.09656 12.2232 9.24954 12.4206 9.44374C12.618 9.63795 12.7747 9.86948 12.8817 10.1249C12.9887 10.3803 13.0438 10.6544 13.0438 10.9313C13.0438 11.2082 12.9887 11.4823 12.8817 11.7377C12.7747 11.9931 12.618 12.2246 12.4206 12.4188C12.2232 12.613 11.9892 12.766 11.7321 12.8688C11.475 12.9717 11.2 13.0223 10.9232 13.0179C10.3697 13.0179 9.83891 12.798 9.44755 12.4066C9.05618 12.0153 8.83632 11.4845 8.83632 10.931C8.83632 10.3775 9.05618 9.84672 9.44755 9.45536C9.83891 9.064 10.3697 8.84468 10.9232 8.84468ZM13.6356 8.74033C13.6378 8.81023 13.626 8.87987 13.6008 8.94511C13.5756 9.01035 13.5376 9.06986 13.4889 9.12011C13.4403 9.17035 13.3821 9.2103 13.3177 9.23759C13.2533 9.26487 13.1841 9.27893 13.1141 9.27893C13.0442 9.27893 12.975 9.26487 12.9106 9.23759C12.8462 9.2103 12.7879 9.17035 12.7393 9.12011C12.6906 9.06986 12.6526 9.01035 12.6274 8.94511C12.6022 8.87987 12.5904 8.81023 12.5927 8.74033C12.5927 8.60197 12.6476 8.46927 12.7455 8.37142C12.8433 8.27358 12.976 8.21862 13.1144 8.21862C13.2528 8.21862 13.3855 8.27358 13.4833 8.37142C13.5811 8.46927 13.6356 8.60197 13.6356 8.74033ZM10.9232 7.5931C9.89068 7.5931 9.72242 7.59529 9.24222 7.6166C8.91444 7.63244 8.69537 7.67614 8.4916 7.75536C8.31078 7.82528 8.18021 7.90941 8.04091 8.04872C7.90979 8.17491 7.80982 8.32897 7.747 8.49942C7.66778 8.70373 7.62408 8.9228 7.60878 9.25003C7.58693 9.71056 7.58475 9.87172 7.58475 10.931C7.58475 11.9635 7.58748 12.1323 7.60878 12.6125C7.62463 12.9392 7.66833 13.1588 7.747 13.3626C7.81802 13.5439 7.9016 13.6745 8.04036 13.8133C8.18076 13.9531 8.31132 14.0373 8.49106 14.1066C8.69701 14.1864 8.91662 14.2306 9.24222 14.2454C9.70275 14.2672 9.86391 14.2694 10.9232 14.2694C11.9557 14.2694 12.1245 14.2667 12.6047 14.2454C12.9308 14.2301 13.151 14.1864 13.3548 14.1072C13.535 14.0367 13.6667 13.9531 13.8055 13.8144C13.9459 13.6734 14.0294 13.5429 14.0988 13.3637C14.1786 13.1577 14.2228 12.9376 14.2376 12.6125C14.2594 12.152 14.2616 11.9908 14.2616 10.931C14.2616 9.89849 14.2589 9.73023 14.2376 9.25003C14.2223 8.92334 14.1786 8.70319 14.0988 8.49942C14.0359 8.32915 13.9357 8.17514 13.8055 8.04872C13.6793 7.91799 13.5253 7.81751 13.3548 7.75481C13.1504 7.6756 12.9308 7.63189 12.6047 7.6166C12.1442 7.59474 11.983 7.5931 10.9232 7.5931ZM10.9232 6.75781C12.0573 6.75781 12.1988 6.76218 12.6435 6.78294C13.0882 6.8037 13.3903 6.87363 13.6569 6.97688C13.9322 7.08286 14.1644 7.22654 14.396 7.45817C14.6085 7.66686 14.773 7.91925 14.8773 8.19786C14.9806 8.46336 15.0505 8.76601 15.0712 9.2107C15.0909 9.65593 15.0964 9.79742 15.0964 10.9315C15.0964 12.0651 15.092 12.2066 15.0712 12.6513C15.0505 13.096 14.9806 13.3981 14.8773 13.6647C14.773 13.9433 14.6085 14.1957 14.3966 14.4038C14.1878 14.616 13.9354 14.7802 13.6569 14.8851C13.3908 14.9884 13.0876 15.0583 12.6435 15.079C12.1988 15.0987 12.0573 15.1042 10.9232 15.1042C9.78961 15.1042 9.64812 15.0998 9.20289 15.079C8.75874 15.0583 8.45609 14.9884 8.19005 14.8851C7.91138 14.7807 7.65892 14.6166 7.45036 14.4044C7.23824 14.1957 7.07418 13.9433 6.96961 13.6647C6.86582 13.3986 6.79589 13.0954 6.77513 12.6513C6.75546 12.2066 6.75 12.0651 6.75 10.931C6.75 9.79742 6.75437 9.65593 6.77513 9.2107C6.79589 8.76601 6.86582 8.46391 6.96907 8.19786C7.07396 7.91925 7.23785 7.66686 7.45036 7.45817C7.65897 7.24597 7.91142 7.0819 8.19005 6.97742C8.45609 6.87363 8.7582 6.8037 9.20289 6.78294C9.64812 6.76328 9.78961 6.75781 10.9237 6.75781H10.9232Z" fill="#6C6C6C"/>
</g>
</g>
</g>
</g>
<defs>
<filter id="filter0_i_1181_141" x="0" y="0" width="21.8516" height="21.8516" filterUnits="userSpaceOnUse" color-interpolation-filters="sRGB">
<feFlood flood-opacity="0" result="BackgroundImageFix"/>
<feBlend mode="normal" in="SourceGraphic" in2="BackgroundImageFix" result="shape"/>
<feColorMatrix in="SourceAlpha" type="matrix" values="0 0 0 0 0 0 0 0 0 0 0 0 0 0 0 0 0 0 127 0" result="hardAlpha"/>
<feMorphology radius="0.447966" operator="erode" in="SourceAlpha" result="effect1_innerShadow_1181_141"/>
<feOffset/>
<feGaussianBlur stdDeviation="2.1852"/>
<feComposite in2="hardAlpha" operator="arithmetic" k2="-1" k3="1"/>
<feColorMatrix type="matrix" values="0 0 0 0 1 0 0 0 0 1 0 0 0 0 1 0 0 0 0.12 0"/>
<feBlend mode="normal" in2="shape" result="effect1_innerShadow_1181_141"/>
</filter>
<radialGradient id="paint0_radial_1181_141" cx="0" cy="0" r="1" gradientUnits="userSpaceOnUse" gradientTransform="translate(10.926 21.852) scale(21.852)">
<stop stop-color="white" stop-opacity="0.04"/>
<stop offset="1" stop-color="white" stop-opacity="0"/>
</radialGradient>
<clipPath id="clip0_1181_141">
<rect width="21.852" height="21.852" rx="4.3704" fill="white"/>
</clipPath>
<clipPath id="clip1_1181_141">
<rect width="13.1112" height="13.1112" fill="white" transform="translate(4.37109 4.36914)"/>
</clipPath>
<clipPath id="clip2_1181_141">
<rect width="13.1112" height="13.1112" fill="white" transform="translate(4.37109 4.37109)"/>
</clipPath>
</defs>
</svg>
