<svg width="23" height="22" viewBox="0 0 23 22" fill="none" xmlns="http://www.w3.org/2000/svg">
<g filter="url(#filter0_i_1181_157)">
<g clip-path="url(#clip0_1181_157)">
<rect x="0.703125" width="21.852" height="21.852" rx="4.3704" fill="#05041F" fill-opacity="0.08"/>
<rect x="0.976275" y="0.27315" width="21.3057" height="21.3057" rx="4.09725" stroke="white" stroke-opacity="0.08" stroke-width="0.5463"/>
<rect x="0.703125" width="21.852" height="21.852" fill="url(#paint0_radial_1181_157)"/>
<g clip-path="url(#clip1_1181_157)">
<g clip-path="url(#clip2_1181_157)">
<path d="M9.64971 13.6397L9.95181 13.8167C10.6527 14.2244 11.4781 14.3631 12.2737 14.2068C13.0694 14.0505 13.7809 13.61 14.2756 12.9675C14.7702 12.325 15.0141 11.5244 14.9618 10.7153C14.9094 9.9061 14.5643 9.14366 13.9909 8.5703C13.4176 7.99694 12.6551 7.65185 11.846 7.59947C11.0368 7.54709 10.2362 7.79099 9.59373 8.28564C8.95123 8.78028 8.51072 9.49186 8.35444 10.2875C8.19817 11.0832 8.33681 11.9085 8.74449 12.6094L8.92094 12.9115L8.64779 13.9134L9.64971 13.6403V13.6397ZM7.45904 15.1038L8.02337 13.0301C7.5135 12.1539 7.33995 11.1222 7.53513 10.1275C7.73032 9.13274 8.28089 8.24307 9.08404 7.62459C9.88718 7.0061 10.888 6.70109 11.8996 6.76652C12.9111 6.83194 13.8643 7.26333 14.5811 7.98011C15.2979 8.6969 15.7293 9.65008 15.7947 10.6617C15.8601 11.6732 15.5551 12.674 14.9366 13.4772C14.3182 14.2803 13.4285 14.8309 12.4338 15.0261C11.439 15.2213 10.4073 15.0477 9.53116 14.5379L7.45904 15.1038ZM10.125 8.97215C10.1808 8.96806 10.2368 8.96751 10.2927 8.97051L10.3604 8.97707C10.4265 8.98472 10.4997 9.02514 10.5243 9.08087C10.6489 9.3633 10.7702 9.64738 10.8865 9.93255C10.9127 9.99592 10.8975 10.0773 10.8483 10.1565C10.8139 10.2101 10.7773 10.262 10.7379 10.3117C10.691 10.3718 10.5893 10.4832 10.5893 10.4832C10.5893 10.4832 10.5484 10.5324 10.5642 10.5936C10.5697 10.6171 10.5893 10.6509 10.6068 10.6793L10.6314 10.7192C10.7379 10.8973 10.8816 11.0781 11.057 11.248C11.1067 11.2967 11.1553 11.3464 11.2083 11.3928C11.4038 11.5652 11.625 11.706 11.8639 11.8102L11.8655 11.8107C11.901 11.826 11.919 11.8348 11.9709 11.8566C11.9966 11.8675 12.0234 11.8768 12.0507 11.8839C12.0787 11.891 12.1081 11.8896 12.1354 11.88C12.1626 11.8704 12.1863 11.8529 12.2037 11.8298C12.5058 11.4638 12.5336 11.4403 12.5358 11.4403V11.4409C12.5568 11.4213 12.5818 11.4065 12.609 11.3974C12.6363 11.3882 12.6651 11.385 12.6937 11.3879C12.719 11.389 12.744 11.3945 12.7674 11.4043C12.9892 11.5059 13.352 11.6643 13.352 11.6643L13.5945 11.7736C13.6355 11.7927 13.6727 11.8391 13.6737 11.8839C13.6754 11.9112 13.6781 11.9566 13.6683 12.0396C13.6563 12.1447 13.63 12.2476 13.5902 12.3456C13.5679 12.3918 13.5384 12.4342 13.5028 12.4712C13.4605 12.5154 13.4142 12.5557 13.3645 12.5914C13.3475 12.6043 13.3302 12.6169 13.3126 12.6291C13.2607 12.6619 13.2072 12.6925 13.1526 12.7209C13.0452 12.7779 12.9266 12.8108 12.8051 12.817C12.7276 12.8208 12.6505 12.8268 12.573 12.8225L12.3359 12.7864C11.7426 12.6303 11.194 12.3379 10.7336 11.9325C10.6391 11.8495 10.5522 11.7605 10.4626 11.6714C10.0911 11.3021 9.81086 10.9033 9.64042 10.5269C9.55324 10.3422 9.50614 10.1411 9.5022 9.93692C9.50069 9.68379 9.58353 9.43736 9.73766 9.23656C9.76825 9.19723 9.79721 9.15625 9.84692 9.10927C9.88285 9.07178 9.92408 9.03975 9.96929 9.01422C10.0176 8.98987 10.0704 8.97556 10.1244 8.97215H10.125Z" fill="#6C6C6C"/>
</g>
</g>
</g>
</g>
<defs>
<filter id="filter0_i_1181_157" x="0.703125" y="0" width="21.8516" height="21.8516" filterUnits="userSpaceOnUse" color-interpolation-filters="sRGB">
<feFlood flood-opacity="0" result="BackgroundImageFix"/>
<feBlend mode="normal" in="SourceGraphic" in2="BackgroundImageFix" result="shape"/>
<feColorMatrix in="SourceAlpha" type="matrix" values="0 0 0 0 0 0 0 0 0 0 0 0 0 0 0 0 0 0 127 0" result="hardAlpha"/>
<feMorphology radius="0.447966" operator="erode" in="SourceAlpha" result="effect1_innerShadow_1181_157"/>
<feOffset/>
<feGaussianBlur stdDeviation="2.1852"/>
<feComposite in2="hardAlpha" operator="arithmetic" k2="-1" k3="1"/>
<feColorMatrix type="matrix" values="0 0 0 0 1 0 0 0 0 1 0 0 0 0 1 0 0 0 0.12 0"/>
<feBlend mode="normal" in2="shape" result="effect1_innerShadow_1181_157"/>
</filter>
<radialGradient id="paint0_radial_1181_157" cx="0" cy="0" r="1" gradientUnits="userSpaceOnUse" gradientTransform="translate(11.6291 21.852) scale(21.852)">
<stop stop-color="white" stop-opacity="0.04"/>
<stop offset="1" stop-color="white" stop-opacity="0"/>
</radialGradient>
<clipPath id="clip0_1181_157">
<rect x="0.703125" width="21.852" height="21.852" rx="4.3704" fill="white"/>
</clipPath>
<clipPath id="clip1_1181_157">
<rect width="13.1112" height="13.1112" fill="white" transform="translate(5.07422 4.36914)"/>
</clipPath>
<clipPath id="clip2_1181_157">
<rect width="13.1112" height="13.1112" fill="white" transform="translate(5.07422 4.37109)"/>
</clipPath>
</defs>
</svg>
